<svg id="melissa-and-chris-svg" width="1306.6mm" height="942.62mm" version="1.1" viewBox="0 0 1306.6 942.62" xmlns="http://www.w3.org/2000/svg">
 <style/>

<defs>

<mask id="mask-m" maskUnits="userSpaceOnUse">
  <path id="mask-m-path" d="m213.38 436.69s-44.661-57.067-74.435-12.406c-29.774 44.661-19.849 99.247 12.406 114.13 32.255 14.887 136.46 2.4812 166.24-79.398 29.774-81.879 89.322-240.67 89.322-240.67l47.142-81.879 19.849-7.4435-104.21 290.3 96.766-186.09 69.473-109.17 37.218-22.331-76.916 143.91-34.736 146.39 17.368 96.766 62.029 64.511 42.18 14.887" fill="none" stroke="#000" stroke-width=".26458px"/>
</mask>

<mask id="mask-e" maskUnits="userSpaceOnUse">
  <path id="mask-e-path" d="m503.68 399.47 52.105-49.623s9.9247-44.661-32.255-2.4812c-42.18 42.18-29.774 101.73-29.774 101.73s31.177 16.936 79.398-53.832" fill="none" stroke="#000" stroke-width=".26458px"/>
</mask>

<mask id="mask-l" maskUnits="userSpaceOnUse">
  <path id="mask-l-path" d="m847 102.78s102.03 56.972 141.91-6.1965c60.716-96.157-133.25-56.957-133.25-56.957s-147.36 120.12-115.16 156.03c32.196 35.911 99.064-11.145 99.064-11.145l45.817-70.583s21.051-63.153-21.051-99.064c-42.102-35.911-108.97 17.336-108.97 17.336l-66.868 79.251s-120.12 271.19-116.4 297.19c3.7149 26.004 7.4298 35.911 52.009-38.387" fill="none" stroke="#000" stroke-width=".26458px"/>
</mask>

<mask id="mask-iss" maskUnits="userSpaceOnUse">
  <path id="mask-iss-path" d="m661.25 282.33-33.434 95.349s13.621 42.102 33.434 9.9064c19.813-32.196 80.489-144.88 80.489-144.88l-11.145 2.4766-1.2383 28.481s43.34 76.775-1.2382 107.73c-44.579 30.958-32.196-8.6681-32.196-8.6681l50.77-34.672s50.77-42.102 64.392-91.634c13.621-49.532 9.9064-30.957 9.9064-30.957l-11.145 34.672s49.532 78.013-17.336 113.92c-66.868 35.911 17.336-39.626 17.336-39.626l59.438-38.387" fill="none" stroke="#000" stroke-width=".26458px"/>
</mask>

<mask id="mask-a" maskUnits="userSpaceOnUse">
  <path id="mask-a-path" d="m927.49 237.75s-42.35-49.201-73.06 94.111c-9.0277 42.129 17.68 22.09 41.154-12.184 24.824-36.246 46.765-88.118 46.765-88.118l-35.911 96.587s1.2383 113.92 126.31 54.485c125.07-59.438 80.489-169.65 80.489-169.65s-55.944-84.306-105.26 0c-38.387 65.63 14.86 90.396 14.86 90.396l16.098-2.4766" fill="none" stroke="#000" stroke-width=".26458px"/>
</mask>

<mask id="mask-ampersand" maskUnits="userSpaceOnUse">
 <path id="mask-ampersand-path" d="m844.52 419.78s46.138 46.234 44.579-9.9064c-1.2383-44.579-68.106-28.481-68.106-28.481l-19.813 42.102 13.621 32.196 14.86 4.9532v-11.145l-22.289-12.383-37.149 19.813-4.9532 52.009 27.243 29.719s77.201 43.932 91.634-40.864c9.9064-58.2-49.532-22.289-49.532-22.289l4.9532 26.004 39.626-38.387 27.243 23.528s52.009 37.149 58.2-24.766c6.1915-61.915-52.009-16.098-52.009-16.098l9.9064 16.098" fill="none" stroke="#000" stroke-width=".26458px"/>
  <path id="mask-c-path" d="m-1.2383 479.22s-3.7149 169.65 189.46 188.22c193.17 18.574 314.53-82.966 314.53-82.966s141.17-147.36 34.672-120.12c-106.49 27.243-158.5 184.51-158.5 184.51s-34.504 160.05 90.396 95.349c93.762-48.573 75.536-92.872 75.536-92.872" fill="none" stroke="#000" stroke-width=".26458px"/>
    <path id="mask-hr-path" d="m584.48 560.95s149.83-13.621 159.74-118.88c9.9064-105.26-142.4 86.681-142.4 86.681l-99.064 229.09s71.821-144.88 95.349-142.4c23.528 2.4766 23.528 0-17.336 97.826-40.864 97.826 75.536-44.579 75.536-44.579l30.957-69.345s-16.098-32.196-26.004-3.7149c-9.9064 28.481 12.383 37.149 12.383 37.149l45.817-22.289-33.434 80.489s-3.7149 156.03 123.83 180.79c127.54 24.766 186.98 8.6681 186.98 8.6681s172.12-80.489 154.79-221.66c-17.336-141.17-175.84-160.98-222.89-117.64" fill="none" stroke="#000" stroke-width=".26458px"/>
</mask>

<mask id="mask-is" maskUnits="userSpaceOnUse">
  <path id="mask-is-path" d="m699.64 721.93 38.387-52.009 23.528-63.153-33.434 110.21s9.9064 33.434 60.677-40.864c50.77-74.298 65.63-115.16 65.63-115.16l-18.574 34.672s26.004 112.69-38.387 136.21c-64.392 23.528 43.34-89.158 43.34-89.158s122.95-91.225 194.41-3.7149c60.677 74.298-43.422 163.83-74.298 165.93-26.937 1.8334-154.92-51.857-69.345-122.59 68.034-56.236 78.013 44.579 78.013 44.579" fill="none" stroke="#000" stroke-width=".26458px"/>
  <path id="mask-ornament-m-path" d="m439.62 455.46s-162.38 178.23-243.57 154.46c-81.191-23.763-191.88-55.965-128.72-200.01 47.879-109.19 172.28-5.9408 172.28-5.9408" fill="none" stroke="#000" stroke-width=".26458px"/>
</mask>


<mask id="mask-ornament-c-top" maskUnits="userSpaceOnUse">
  <path id="mask-ornament-c-top-path" d="m302.98 697.06s-1.9803 124.76 118.82 106.94" fill="none" stroke="#000" stroke-width=".26458px"/>
</mask>


<mask id="mask-ornament-c-bottom" maskUnits="userSpaceOnUse">
  <path id="mask-ornament-c-bottom-path" d="m225.75 706.96s-3.9605 190.11 239.61 160.4" fill="none" stroke="#000" stroke-width=".26458px"/>
</mask>

<mask id="mask-ornament-s" maskUnits="userSpaceOnUse">
  <path id="mask-ornament-s-path" d="m1037.7 461.41s229.71 9.9014 166.34 310.9" fill="none" stroke="#000" stroke-width=".26458px"/>
</mask>

<mask id="mask-ornament-a" maskUnits="userSpaceOnUse">
  <path id="mask-ornament-a-path" d="m972.32 166.34s169.15-128.74 227.73 69.31c35.703 120.7-154.46 182.19-154.46 182.19" fill="none" stroke="#000" stroke-width=".26458px"/>
</mask>
</defs>


 <g>
  <path id="text-m" d="m579.03 99.644c-0.0705-3e-3 -0.14385 6e-3 -0.2196 0.02331l-0.30284 0.0713c-106 46.842-137.42 212.81-198.58 305.82 14.219-29.132 27.611-75.267 42.608-122.73 18.078-57.426 36.726-117.85 57.236-154.19l0.16021-0.67437c-0.14301-0.60341-0.89189-1.0646-1.4981-0.92243l-0.30282 0.0713c-115.38 64.009-109.33 363.7-241.6 409.06-68.951 20.266-90.495-10.516-104.19-43.98-1.9396-7.7796-2.8252-16.232-2.4608-25.196 1.0751-20.282 12.557-39.773 28.256-49.397 16.541-10.139 37.634-8.7285 54.263 16.174l3.1166 5.2596c0.53566 0.8038 1.2758 0.72771 1.8366 0.38396 0.2801-0.17219 0.66241-0.78325 0.30487-1.3188-2.0728-6.6542-4.8079-12.525-8.0264-17.345-8.3872-12.56-20.013-18.079-32.123-18.009-8.2862 0.0481-16.8 2.7131-24.658 7.5303-15.7 9.6236-28.915 28.291-31.62 51.459-2.2738 20.262 2.2332 38.255 11.889 52.714 14.464 21.66 41.217 33.294 70.386 30.59 12.148-1.2292 23.209-2.8563 33.826-6.8239 131.13-44.773 127.52-335.49 235.8-405.16-62.772 78.101-84.96 265.47-111.82 296.61l-0.39172 1.0475c0.14298 0.60339 0.51724 0.83415 1.1235 0.69194l0.83767-0.51522c74.094-77.573 95.73-263.22 207.83-324.87-43.597 45.578-75.793 113.64-93.781 175.5-19.484 66.354-24.597 131.25-14.311 174.7 3.6202 37.622 58.512 88.944 77.345 97.357 29.638 13.239 47.746 12.205 47.105 7.3753 1.1827-1.9704-1.54-1.9942-1.54-1.9942s-23.752 2.6344-42.506-8.5201c-39.178-23.302-61.636-63.589-67.993-90.441-18.999-80.257 20.598-248.15 104.88-358.36 0.2317-0.37285 0.16031-0.67445 0.0889-0.97618-0.12512-0.52797-0.48228-1.0016-0.97565-1.0165z" mask="url(#mask-m)"/>

  <path id="text-e" d="m512.26 453.43c28.5-6.7162 57.755-50.217 77.821-85.028l0.10065-1.111c-0.16182-0.68675-0.92953-0.86825-1.6162-0.70643-0.34338 0.0809-0.68678 0.16184-0.94925 0.58613-19.198 33.882-48.453 77.382-75.58 83.775-6.5241 1.5374-11.817 0.61008-13.516-6.6007-2.1039-8.9276 0.75922-24.462 6.6317-41.069 9.5729-5.5179 57.289-53.731 53.728-68.84-0.97102-4.1205-6.3447-5.3912-13.555-3.6919-33.307 7.849-63.522 78.034-56.24 108.94 2.8321 12.018 11.499 16.499 23.174 13.748zm-5.8563-54.073c10.594-30.405 29.349-63.095 42.741-66.25 3.777-0.89008 6.5852 0.26035 7.1516 2.664 2.8321 12.018-43.329 59.14-49.892 63.586z" mask="url(#mask-e)"/>

  <path id="text-l" d="m821.6 4.0836e-4c-3.9503-0.0114-7.9619 0.19413-11.752 0.70382-138.45 54.389-185.75 237.21-228.65 357.69-4.6966 12.666-13.499 38.888-13.827 56.368-0.21854 11.653 2.3185 16.881 10.015 17.189 14.452-3.2673 47.933-59.299 55.537-75.694l0.21654-0.73173c0.0193-1.0282-0.38153-1.279-0.78859-1.187-0.2036 0.0459-0.40704 0.0922-0.41341 0.43511-7.5914 15.709-37.406 63.902-48.808 69.28-3.6639 0.8286-4.912 1.4236-4.7899-5.0886 5.9836-42.876 28.384-89.335 43.451-133.71 33.847-96.981 105.87-263.88 192.2-282.43 3.7898-0.5097 7.619-0.72774 11.171-0.61185 23.959 1.2303 42.697 13.849 53.89 32.528-80.266 19.997-148.87 105.21-142.9 149.53 2.2351 16.619 14.975 27.67 40.987 27.437 3.2366 0.15839 6.3952-0.26616 9.5534-0.69091 43.899-5.904 80.528-49.122 95.56-85.577 15.035 4.2115 31.889 5.2101 48.312 3.0014 11.369-1.5291 22.504-4.8077 32.533-9.125 17.888-8.0457 37.756-22.888 37.34-42.72l-0.4295-5.5821c-5.3722-39.944-61.695-45.133-101.8-39.739-6.3164 0.84949-11.962 1.906-16.936 3.1688-11.035-19.888-31.154-33.212-55.744-34.357-1.2927-0.0488-2.6029-0.0768-3.9197-0.0806zm105.39 31.606c33.114 0.13565 66.598 10.799 70.53 40.033l0.35087 4.9987c0.22047 18.374-18.977 33.423-35.719 40.424-6.6735 2.9754-14.136 4.8696-22.031 5.9314-18.633 2.506-38.565 0.14041-55.534-4.1077 6.0154-17.432 9.2297-36.565 6.7593-54.933-1.2156-9.0385-4.0102-17.865-8.029-26.229 6.4753-2.0582 13.977-3.6609 21.556-4.6803 6.6223-0.89064 13.563-1.3941 20.54-1.4356 0.52533-3e-3 1.051-4e-3 1.5766-3e-3zm-46.122 7.0404c4.3346 8.3222 6.8138 17.191 7.9902 25.937 2.4312 18.077-0.54608 36.585-6.6006 53.725-8.9584-2.0604-28.175-8.6774-34.564-15.536-0.39422-0.54065-1.0262-0.4559-1.342-0.41341-0.31584 0.0425-0.9079 0.419-0.86868 0.71054l0.39428 0.54054c7.5298 10.564 20.983 17.363 34.045 21.246-14.557 35.204-50.594 78.046-93.229 83.78-3.1582 0.42475-6.3168 0.84929-9.5534 0.69092-16.381 0.12528-31.296-5.5861-33.414-21.33l-0.2744-2.0412c-3.4254-54.157 86.64-130.39 137.42-147.31z" mask="url(#mask-l)"/>

  <path id="text-iss" d="m821.77 212.83c-0.15729 8e-3 -0.32176 0.024-0.4935 0.0486-3.5188 0.59975-7.8978 5.9222-10.605 13.214-2.7071 7.2914-3.2728 12.908-1.7505 20.791-4.8714 11.328-15.848 37.028-21.522 46.844-8.9998 16.237-19.961 30.005-34.662 40.518 0.19095-8.343-1.1727-16.959-4.1579-24.794-5.6022-14.387-14.146-24.875-17.165-39.265 2.0723-4.357 21.008-37.428 10.016-35.858-3.519 0.5998-7.898 5.9223-10.605 13.214-2.7071 7.2914-3.273 14.196-1.7505 22.078-5.9294 16.481-16.241 32.69-23.481 48.373-7.3006 15.815-39.89 72.731-62.434 78.044-3.0903 0.72827-6.2616 1.1134-7.2326-3.0071-3.965-16.825 27.86-95.806 31.755-105.42l2.188-5.9433c-3.6939-0.0444-6.064-0.27586-10.757-0.79997 0 0-27.789 60.334-32.264 87.485-0.66495 4.8684-1.1067 12.221 0.34986 18.402 2.0229 8.5843 7.5998 13.794 16.184 11.771 25.41-5.9879 58.801-68.829 65.101-81.891 5.9384-12.312 15.341-29.819 21.683-43.452 3.3369 12.923 8.5804 21.294 10.004 37.84 1.0463 10.083 0.72845 19.918-0.80804 30.005-11.258 5.7882-24.977 14.442-33.443 22.244-9.1515 7.9861-14.085 16.013-13.55 21.743 1.4396 12.742 20.421 5.5704 27.316 1.2997 8.1738-4.9596 15.453-11.752 21.838-20.377 6.134-8.212 10.32-19.355 11.079-29.578 11.484-7.5762 23.075-18.636 35.268-39.186 5.014-8.2566 17.673-36.186 21.884-45.955 3.3369 12.923 8.8381 21.809 10.261 38.356 1.0463 10.083 0.21339 20.175-1.3231 30.262-11.258 5.7882-24.977 14.184-33.443 21.986-9.1515 7.9861-13.57 16.014-13.035 21.743 1.4396 12.742 20.421 5.5698 27.316 1.2991 8.174-4.9596 15.453-11.752 21.838-20.377 6.134-8.212 10.578-18.84 11.337-29.063 12.512-7.8523 23.158-15.914 33.863-37.791 0.31744-1.4672-0.11526-5.0256-0.61677-4.1999-10.955 22.29-20.7 30.266-33.37 38.852 0.19106-8.343-1.1727-16.445-4.1579-24.28-5.6022-14.387-14.146-24.875-17.165-39.265 2.0399-4.2889 20.42-36.402 10.51-35.906zm-2.9517 109.88c-1.1777 6.1896-2.6979 12.471-5.0875 18.296-3.2085 8.1171-8.4736 16.787-16.213 21.975-5.867 3.9944-21.242 10.493-22.723 0.18069-0.25995-4.767 2.8869-11.435 12.289-19.834 7.3713-6.4715 20.978-15.654 31.734-20.617zm-79.846 21.449c-1.1777 6.1896-2.6982 12.471-5.088 18.296-3.2085 8.1171-8.4732 16.787-16.212 21.975-5.867 3.9944-22.015 10.75-23.496 0.43823-0.25974-4.767 3.6594-11.693 13.062-20.092 7.3713-6.4715 20.978-15.654 31.734-20.617z" mask="url(#mask-iss)"/>

  <path id="text-a" d="m942.97 225.05c-0.5615-4e-3 -1.1561 0.0687-1.757 0.21032-5.1505 1.2138-7.8954 8.0217-11.327 14.992l-0.24289-1.0299c-2.2657-9.6144-12.851-11.469-22.122-9.2842-38.114 8.9819-61.379 84.053-54.42 113.58 1.8611 7.8975 6.6703 12.926 13.538 11.307 12.705-2.994 28.371-28.795 38.828-49.019-1.7956 6.2222-3.4885 17.495-1.4655 26.079 0.88646 3.7617 2.678 7.1982 5.4131 9.2346l5.3894-1.8402c-0.5802-0.46836-1.0142-1.2317-1.2868-2.3885-3.884-16.482 29.055-98.182 32.687-107.37l0.20103-2.2221c-0.36414-1.5452-1.7505-2.2377-3.435-2.2484zm-26.278 6.7283c5.4667 0.0332 9.1799 3.7457 10.204 8.0915 0.40457 1.7169 0.46585 3.5145 0.26458 5.7366-6.7013 14.627-12.392 30.466-17.478 45.799-5.1069 10.627-28.159 57.378-43.268 60.938-2.747 0.64736-4.5249-0.74586-5.334-4.1796-4.936-20.946 28.363-110.34 52.399-116.01 1.1267-0.26551 2.1988-0.38546 3.2112-0.3793z" mask="url(#mask-a)"/>

  <path id="text-a-ornament" d="m1122.6 240.06c-8.569-40.117-35.876-63.073-65.35-61.96-15.852 0.59861-31.841 8.0132-46.19 22.894-16.354 17.107-24.04 40.697-23.58 60.754 0.56689 24.713 13.071 44.673 36.261 43.797 5.2839-0.19955 11.13-1.4958 17.246-3.8776 0.5871-0.022 0.8636-0.74957 0.8558-1.1077-0.016-0.71634-0.3265-1.426-1.207-1.3883l-5.5692 0.56915c-27.3 1.031-38.874-16.814-39.359-37.945-0.46005-20.057 8.7175-42.628 23.678-56.456 14.105-12.721 29.238-19.027 43.328-19.56 31.997-1.2084 59.4 27.868 60.575 79.084-1.1374 60.524-47.964 102.28-110.72 124.82-38.968 14-97.317 5.5204-98.993-67.543-6.4371 1.7318-10.401-7.5113-10.612 2.1412-4.7918 71.351 76.43 87.658 120.29 65.833 68.033-28.169 103.26-73.994 102.07-126.05-0.1964-8.5621-1.1407-16.58-2.7276-24.009z" mask="url(#mask-ornament-a)"/>


  <path id="text-i-melissa-dot" d="m682.76 232.72c3.6186 4.0562 3.2613 10.324-0.79494 13.943-4.0562 3.6186-10.324 3.2613-13.943-0.79494-3.6186-4.0562-3.2613-10.324 0.79494-13.943 4.0562-3.6186 10.324-3.2613 13.943 0.79494zm-2.8171 1.8603c-2.5393-2.8464-6.2821-2.9559-9.1284-0.41663-2.8464 2.5393-2.1187 6.3579 0.42061 9.2043 2.5393 2.8464 5.8865 3.5954 8.7329 1.0561 2.8464-2.5393 2.5142-6.9974-0.0251-9.8438z" />


  <path id="text-c" d="m560.54 459.64c-3.87-0.0188-8.2162 0.56229-12.862 1.6361l-5.3873 1.5167c-85.064 24.812-153.68 115.21-169.4 189.31-0.0748 0.0124-0.14798 0.0233-0.22276 0.0357l-0.91156 5.9247-0.22736 0.0403c-1.4663 9.0406-2.4673 17.766-2.5983 26.085-0.24063 11.44 1.1006 23.869 4.4183 35.299 13.69 32.317 34.515 48.308 64.878 39.484 44.524-10.291 97.111-59.779 100.4-97.524l-3.1239 4.8204c-6.8904 36.174-56.094 81.287-97.493 90.856-6.9778 1.613-13.57 2.3233-19.924 1.6237-18.998-6.479-27.226-16.002-32.322-29.934l-1.1059-3.8101c-5.8982-20.32-4.8502-47.938 1.3301-73.49 68.5-17.188 205.95-129.19 191.3-181.91-2.0275-6.9851-8.2374-9.9289-16.751-9.9699zm-0.17415 2.0996c6.7529-3e-3 12.637 2.0177 14.572 8.6853 14.672 50.547-122.25 162.15-188.32 178.78 9.693-39.103 31.808-78.908 59.472-111.86 30.723-36.916 68.422-65.416 103.39-74.313 3.5711-0.73226 7.3469-1.2875 10.884-1.2883z" mask="url(#mask-c)"/>


  <path id="text-h" d="m501.65 759.18c2.6164-0.38626 5.1295-1.5706 5.6703-3.2771l29.676-64.974c14.041-26.879 38.03-59.294 65.197-73.065l4.382-1.4603c1.8689-0.2759 2.7198 0.41177 2.9266 2.0079 0.62031 4.7884-5.4079 17.065-12.892 32.81-5.7061 11.822-27.708 53.703-24.71 76.847 0.9821 7.5816 4.7477 13.126 12.637 15.214 0.79926 0.28866 1.9206 0.12311 3.0419-0.0424 20.184-2.9799 64.681-67.743 73.711-83.31l0.2704-0.85323c-1.6577-0.76777-3.9596-1.9151-1.7019-1.3754 0.36746 0.0879-0.74755 0.11036-1.0696 0.56459-8.4379 14.259-53.631 79.532-70.824 82.07-4.1116 0.60704-5.9685-1.9654-6.4337-5.5567-2.6879-20.75 38.702-92.333 39.689-111.18 0.16703-1.6513 0.0119-2.8484-0.14314-4.0455-0.82704-6.3845-4.875-8.2268-10.108-7.4543-22.749 3.7652-50.257 35.479-62.393 53.538 19.85-30.375 29.613-75.379 47.66-101.87 43.086-5.0855 85.32-28.652 108.98-50.466 30.526-28.15 52.114-66.547 35.931-86.397-20.196-18.203-50.805-2.0734-66.245 9.5065-34.481 26.082-58.358 64.428-81.218 101.12-36.33 71.667-67.926 150.77-99.327 218.25l-0.27041 0.85325c0.25848 1.9952 4.203 3.0394 7.567 2.5428zm95.786-200.15c7.0651-14.565 7.1217-13.398 11.176-19.802 26.402-41.701 76.818-119.79 121.84-114.04 10.944 2.5899 16.246 10.754 11.036 28.584-5.2099 17.83-23.391 49.961-46.751 64.915-65.045 41.638-83.533 39.076-97.303 40.346z"/>


  <path id="text-r" d="m1001.9 520.22c-24.26-0.89895-49.216 6.5307-69.984 20.158-26.601 25.511-6.3915 7.4616 5.1404 1.1066 15-8.2661 45.169-17.542 68.473-15.45 30.128 2.7048 60.99 15.27 83.55 35.422 29.208 26.09 55.84 63.211 57.731 102.33 2.8988 59.982-29.311 123.49-72.98 164.71-44.594 42.097-110.89 64.455-172.22 64.723-50.722 0.22183-100.69-24.155-142.9-52.284-21.001-13.996-38.638-30.896-51.377-55.611-14.425-27.983-19.312-43.975-17.971-81.913 1.0386-29.382 15.986-54.918 31.267-93.831 4.8398-12.324-15.064 8.2806-22.701 12.22-6.9187 3.5685-19.386 10.821-20.942 10.338 8.0397-15.796 18.73-38.616 0.59838-47.875-21.351-10.902-30.597 42.939-6.2079 52.024-15.494 29.595-23.168 35.74-23.273 40.07 19.693-23.963-0.45807 4.6648 1.1184 1.7516 1.5764-2.9132 12.184-16.723 19.95-30.072 1.7549-2.4004 4.4104-8.2542 7.1036-12.059 8.7854-3.2807 18.808-8.0739 26.27-13.618-8.0012 29.701-21.418 58.717-23.576 79.257-4.5913 36.831 10.254 67.571 27.259 96.256 11.7 19.736 30.799 36.158 49.103 48.236 44.31 28.589 95.757 51.169 145.1 51.911 60.213 0.35409 125.86-18.752 170.79-58.844 49.154-43.865 87.813-112.53 85.147-178.36-1.6581-40.939-30.401-79.901-61.752-106.28-25.217-21.218-59.786-33.102-92.72-34.322zm-318.05 77.25c2.7216 8.229-4.5025 26.674-9.6678 32.945-6.9631-0.84278-11.075-13.572-9.2479-23.142 3.7981-19.37 13.218-27.032 18.916-9.8026z"/>
  <path id="text-c-loop" d="m-0.7308 480.23c-4.3121 44.558 17.509 119.73 87.207 155.99 132.37 68.855 291.83 18.113 291.83 18.113l-0.75586-2.3828s-158.73 50.296-289.92-17.947c-68.63-35.7-90.081-110.05-85.873-153.53z"/>

  <path id="text-i-chris-dot" d="m785.61 564.98c2.5918 4.7781 0.80624 10.797-3.9718 13.389-4.7781 2.5918-10.797 0.80624-13.389-3.9718-2.5918-4.778-0.80624-10.797 3.9718-13.389 4.7781-2.5918 10.797-0.80623 13.389 3.9718zm-3.1687 1.1646c-1.8187-3.3529-5.4366-4.3181-8.7895-2.4994-3.3529 1.8187-3.5205 5.7024-1.7018 9.0554 1.8187 3.3529 4.9049 4.8498 8.2578 3.031s4.0522-6.2341 2.2335-9.587z"/>

  <path id="text-i-hairline" d="m748.07 649.35c-0.0499-5e-5 -0.10057 6e-3 -0.15142 0.0177-0.20362 0.0459-0.40709 0.0922-0.41344 0.43511-7.5914 15.709-40.444 63.89-49.181 71.887-0.36822 0.0833-2.4606 1.8928-1.9437 2.3749l0.62304 0.58108c4.121 3.8434 44.48-58.251 51.487-73.359l0.21651-0.73174c0.0167-0.89971-0.2881-1.2042-0.63717-1.2046z"/>
  <path id="text-is-and-ornament" d="m855.62 561.04c-3.6852 0.13229-9.068 5.1746-13.271 12.781-4.3387 7.8518-6.0989 10.858-6.2932 20.479-9.8457 15.854-19.938 33.465-27.961 46.936-6.0855 11.197-42.027 74.88-65.734 80.401-3.0923 0.72014-6.2645 1.097-7.2247-3.026-3.9208-16.836 28.111-95.733 32.032-105.34l2.2036-5.9375c-3.6937-0.0541-6.0633-0.29178-10.755-0.8282 0 0-27.947 60.261-32.493 87.4-0.67771 4.8666-1.1393 12.218 0.30104 18.403 2.0004 8.5896 7.5641 13.814 16.154 11.813 18.635-4.3399 42.636-39.396 56.81-62.863 0.0161-0.0175 0.0362-0.035 0.0502-0.0521 6.1041-9.1523 27.246-46.228 36.724-60.776 0.50607 15.224 3.0827 28.524 1.4741 46.855-23.245 19.706-51.657 42-58.58 67.444-3.7913 14.875 13.625 22.046 21.532 18.799 9.3508-3.7292 18.2-9.8324 26.548-18.31 20.833-20.72 22.048-40.967 19.546-64.364-0.28024-2.0498-0.60306-4.0884-0.95183-6.1184 28.692-22.551 60.807-37.642 98.841-39.504l7.5254-0.27278c56.272 0.14771 99.692 35.664 99.547 90.962-0.01 3.2184-0.017 6.4368-0.3525 9.6543-4.7175 52.36-45.399 95.263-105.6 95.105l-5.2343-0.0138c-43.507-2.1623-69.923-34.416-69.836-67.77 9e-3 -3.511 0.34536-7.0208 1.009-10.53 5.3145-30.415 33.167-47.019 57.377-46.956 20.284 0.0532 38.574 12.097 38.505 38.137-8e-3 2.9258-0.34248 5.8509-0.67805 9.0685v0.29247c-3e-3 0.58515 0.65228 0.87918 1.3067 0.8809 0.32721 0 0.98203-0.28969 1.3108-0.87402 1.9799-6.4316 2.9775-12.573 2.9914-17.84 0.0653-24.869-20.513-37.504-44.069-37.566-27.809-0.073-59.59 17.398-65.574 53.663-0.66363 3.5092-0.99978 7.0191-1.009 10.53-0.0945 35.987 33.192 68.259 78.334 70.718l6.5425 0.30967c48.42 0.12708 101.18-31.041 107.24-97.149 0.3356-3.2176 0.344-6.436 0.3525-9.6544 0.149-56.761-44.577-93.158-102.49-93.31l-6.8711 0.27442c-39.21 1.8536-71.131 16.537-99.676 39.046-2.772-15.076-6.7606-29.68-6.667-44.417 3.052-4.5761 28.862-35.522 17.41-36.48-0.11526-6e-3 -0.23202-6e-3 -0.35089-3e-3zm-18.122 90.722c-1.7045 12.515-4.0102 24.475-7.4439 34.865-0.30083 0.991-0.77666 2.1629-1.0483 3.072-2.5508 6.9504-4.9745 11.325-8.6698 17.539-5.0268 8.6913-16.578 18.899-25.54 23.007-6.8074 3.1857-15.521-7.2504-13.168-14.782 5.6288-18.018 26.779-40.323 55.869-63.7z"/>

  <path id="ampersand-path" d="m844.26 375.24c-19.674-0.13269-37.956 20.516-42.72 34.832-2.957 9.2208-1.7453 25.125 1.2713 28.579-36.073 3.9592-52.71 42.187-42.228 73.129 6.2742 17.847 22.416 27.511 38.906 32.915 20.686 6.78 45.171 2.0861 60.565-12.652 15.828-15.154 16.334-19.866 23.307-33.19 2.3338-6.2918 2.877-13.448 1.8112-20.271-0.91321-5.8459-4.4919-10.577-4.4919-10.577s9.9445 5.2277 16.248 13.157c14.258 18.168 40.624 32.562 59.186 10.171 18.712-22.571 9.2319-62.304-17.644-62.3-25.941 1.1421-30.303 33.613-13.473 32.923-10.769-5.4989-4.2906-27.418 8.3832-29.818 27.25-5.1598 36.407 26.767 25.344 49.424-12.896 26.412-41.813 15.026-56.512-4.0974-20.483-26.647-65.949-23.82-69.033 13.323-1.386 16.693 13.576 15.524 10.625 13.993-9.7027-5.0343-9.706-14.04-5.5754-24.638 5.4782-14.056 38.135-21.368 42.879-3.2044 2.2198 8.4995 1.2583 18.365-2.9322 25.764-11.248 18.735-14.817 23.278-24.742 30.958-15.298 11.84-30.626 11.222-42.469 10.306-12.028-0.93067-24.737-7.3039-31.512-18.476-16.214-31.368-3.6002-81.304 25.498-82.753 3.2807 5.5011 8.2696 11.273 13.281 14.724 3.3765 2.3247 7.0989 3.2155 11.256 2.4886 2.128-0.37206 2.2871-2.8411 1.8433-5.1588-1.2936-6.7551-1.6287-7.1672-7.2371-11.364-4.3653-3.2664-9.8372-4.7975-15.806-4.2076-3.2335-8.9262-0.88061-19.652 3.3485-27.7 11.353-22.858 27.028-35.991 52.719-28.537 11.17 3.2408 16.974 12.514 19.827 21.952 2.128 7.0383 1.709 16.381-3.2391 21.82-5.8133 6.3903-17.804 9.5911-25.163 6.2069-8.3353-3.8336-10.85-11.52-11.917-13.597 0.41481 1.4386 0.36171 6.2343 4.9207 11.594 10.275 12.858 29.509 8.0256 37.148-2.869 5.5225-8.332 5.2061-21.379 0.1265-29.988-8.0706-13.678-15.726-23.007-41.802-22.862zm-0.39362 44.125c-0.033-0.11234-0.058-0.18656-0.073-0.18449-0.0151 3e-3 0.0169 0.0751 0.073 0.18449zm-33.88 23.682c6.2112-1.8313 20.865 3.4017 18.643 14.314-0.49898 2.4502-7.2416-0.72023-9.2684-2.1072-2.9781-1.5174-12.927-18.103-9.3745-12.207z"/>


  <path id="ornament-a-swoosh" d="m1066.2 124.26c-15.124 0.35309-28.829 3.8889-40.738 8.8594-31.758 13.255-50.912 36.613-50.912 36.613l1.9316 1.5859s18.819-22.902 49.943-35.893c31.116-12.987 74.353-16.167 123.85 23.59 55.911 50.821 57.622 112.41 31.391 162.88-26.234 50.479-80.637 89.615-136.87 94.709l0.2266 2.4883c57.235-5.185 112.22-44.782 138.87-96.045s24.713-114.42-31.947-165.9l-0.027-0.0254-0.029-0.0254c-31.328-25.174-60.476-33.424-85.684-32.836z"/>


  <path id="ornament-s-swoosh" d="m1038.1 458.71-0.166 2.4941s125.12 8.163 167.89 145.78c30.61 98.471-8.2441 162.66-8.2441 162.66l2.1406 1.293s39.371-65.353 8.4903-164.69c-43.181-138.91-170.12-147.53-170.12-147.53z"/>


  <path id="ornament-top-c-swoosh" d="m301.47 700.5s-4.3921 49.824 33.291 82.377c37.654 32.527 85.895 23.643 85.895 23.643l-0.45116-2.459s-47.125 8.6149-83.809-23.074c-36.654-31.664-32.436-80.27-32.436-80.27z"/>


  <path id="ornament-bottom-c-swoosh" d="m230.28 707.98-2.4941 0.16799s3.3353 50.7 22.676 83.332c19.16 32.327 34.381 44.191 57.457 58.678 23.484 14.743 63.175 18.694 97.094 19.129s62.062-2.7539 62.062-2.7539l-0.28125-2.4844s-28.006 3.1713-61.75 2.7383-73.227-4.5774-95.797-18.746c-22.978-14.425-37.63-25.774-56.633-57.836-18.822-31.757-22.334-82.225-22.334-82.225z"/>


  <path id="ornament-m-swoosh" d="m160.02 360.99c-13.091-0.4373-26.098 1.617-38.527 5.8828-41.105 14.107-75.524 57.455-75.418 106.02 0.029 13.516 0.9331 40.985 16.549 68.268 15.616 27.283 45.981 54.302 104.44 66.969 70.095 15.189 138.53-23.44 189.39-65.672 50.865-42.232 84.295-88.229 84.295-88.229l-2.0215-1.4687s-33.277 45.77-83.869 87.775c-50.593 42.006-118.36 80.082-187.27 65.15-57.914-12.55-87.52-39.077-102.8-65.768-15.277-26.691-16.19-53.62-16.219-67.031-0.1029-47.378 33.71-89.916 73.729-103.65 38.904-13.352 83.347-4.7293 118.17 35.469l1.8906-1.6367c-24.335-28.093-53.541-41.118-82.342-42.08z"/>


  <path d="m232.55 244.81c-2.9778-4.7898-6.0701-4.061-5.113 2.2727 0.54646 3.616 2.3163 6.137 3.7552 9.9288 7.5126 19.797 37.722 81.848 45.15 99.301 1.0416-0.4953 1.1523-0.61172 2.2241-1.0345-7.9369-19.114-39.184-93.316-42.235-101.19-1.2226-3.1573-3.0564-8.1068-3.7815-9.2732z"/>
  <path d="m281.01 234.49c-1.2889-5.4907-4.4519-5.7896-5.5714 0.51741-0.63902 3.6009 0.23109 6.5554 0.38129 10.608 0.78417 21.16 9.554 89.615 11.008 108.53 1.1455-0.13604 1.2876-0.21087 2.4382-0.26857-1.4045-20.649-7.2705-100.95-7.6402-109.39-0.14835-3.3825-0.30226-8.6586-0.61611-9.9957z"/>
  <path d="m324.7 252.81c0.1092-4.8462-2.8808-5.8037-5.5247-0.82039-1.5093 2.8452-1.397 5.4926-2.2536 8.89-4.4724 17.738-12.903 76.519-16.171 92.541 1.1431 0.14417 1.2994 0.11385 2.4281 0.32401 3.7451-17.452 17.918-85.413 19.646-92.5 0.69267-2.8406 1.8482-7.254 1.8747-8.4341z"/>
  <path d="m348.56 270.42c0.81205-4.2932-1.4672-5.4439-4.3534-1.2835-1.6476 2.3754-1.952 4.7379-3.1533 7.6693-6.272 15.305-21.88 66.665-26.92 80.566 0.90463 0.24283 1.0358 0.23159 1.9189 0.53163 5.6402-15.124 27.271-74.06 29.729-80.181 0.98529-2.4533 2.5805-6.257 2.7783-7.3025z"/>
  <path d="m201.14 278.82c-3.8262-3.273-6.2911-1.8598-3.793 3.2375 1.4265 2.9102 3.6142 4.5805 5.854 7.4087 11.694 14.766 54.072 59.327 65.072 72.136 0.76431-0.68686 0.82865-0.8137 1.6379-1.4471-11.878-14.08-58.362-68.626-63.068-74.486-1.886-2.3484-4.7715-6.0516-5.7032-6.8485z"/>
  <path d="m190.67 313.04c-3.7964-2.0919-5.6202-0.56404-2.619 3.219 1.7136 2.1597 3.8488 3.1917 6.2322 5.1611 12.443 10.282 55.957 40.237 67.471 49.027 0.52171-0.67677 0.55339-0.79009 1.1223-1.4301-12.477-9.6942-61.208-47.179-66.201-51.25-2.001-1.6314-5.0818-4.2172-6.0063-4.7266z"/>
  <path d="m302.89 379.46c2.5918 4.7781 0.80623 10.797-3.9718 13.389-4.7781 2.5918-10.797 0.80624-13.389-3.9718-2.5918-4.7781-0.80624-10.797 3.9718-13.389 4.7781-2.5918 10.797-0.80624 13.389 3.9718zm-3.1687 1.1645c-1.8187-3.3529-5.4366-4.318-8.7895-2.4993-3.3529 1.8187-3.5205 5.7024-1.7018 9.0553 1.8187 3.3529 4.9049 4.8498 8.2578 3.0311s4.0522-6.2341 2.2335-9.5871z"/>
  <path d="m574.72 917.62c-2.9778 4.7898-6.0701 4.061-5.113-2.2727 0.54647-3.6161 2.3163-6.137 3.7552-9.9288 7.5126-19.797 37.722-81.849 45.15-99.301 1.0416 0.4953 1.1523 0.61172 2.2242 1.0345-7.9369 19.114-39.184 93.316-42.235 101.19-1.2226 3.1573-3.0564 8.1068-3.7816 9.2732z"/>
  <path d="m623.19 927.95c-1.2889 5.4907-4.4519 5.7896-5.5714-0.51742-0.63902-3.6008 0.23109-6.5554 0.38129-10.608 0.78418-21.16 9.5541-89.615 11.008-108.53 1.1455 0.13605 1.2876 0.2109 2.4382 0.26858-1.4045 20.649-7.2705 100.95-7.6402 109.39-0.14835 3.3825-0.30226 8.6586-0.61613 9.9957z"/>
  <path d="m664.99 910.83c0.10917 4.8462-2.8808 5.8038-5.5248 0.82039-1.5093-2.8452-1.3969-5.4925-2.2536-8.89-4.4724-17.738-12.903-76.519-16.171-92.541 1.1432-0.14417 1.2994-0.11385 2.4281-0.32401 3.7451 17.452 17.918 85.413 19.646 92.5 0.69271 2.8406 1.8482 7.254 1.8747 8.4341z"/>
  <path d="m705.15 886.39c1.4646 4.1165-0.61 5.6051-4.1033 1.9396-1.9943-2.0928-2.6595-4.3801-4.2986-7.0911-8.5577-14.154-31.901-62.492-39.025-75.449 0.85635-0.37949 0.98769-0.3886 1.8139-0.8213 7.9056 14.073 38.368 68.967 41.742 74.636 1.3519 2.2719 3.5147 5.7841 3.8714 6.7865z"/>
  <path d="m543.32 883.62c-3.8262 3.273-6.2911 1.8598-3.793-3.2375 1.4265-2.9102 3.6142-4.5805 5.854-7.4087 11.694-14.766 54.072-59.327 65.072-72.136 0.7643 0.68683 0.82865 0.81364 1.6379 1.4471-11.878 14.08-58.362 68.626-63.068 74.486-1.886 2.3484-4.7715 6.0516-5.7032 6.8485z"/>
  <path d="m528.75 842.42c-4.0123 1.6401-5.6477-0.0879-2.2302-3.4995 1.9513-1.9477 4.1912-2.7265 6.7858-4.4079 13.546-8.7784 60.224-33.515 72.676-40.918 0.44016 0.73242 0.45857 0.84866 0.94985 1.55-13.511 8.1905-66.241 39.805-71.67 43.273-2.1758 1.3897-5.5343 3.603-6.5114 4.0023z"/>
  <path d="m516.14 804.65c-4.322 0.3293-5.3481-1.8173-1.0484-4.0152 2.4549-1.2548 4.8258-1.3084 7.8112-2.1122 15.587-4.1967 67.604-13.411 81.727-16.635 0.19409 0.83216 0.17589 0.94845 0.4282 1.7667-15.373 3.6478-75.261 17.551-81.492 19.185-2.4974 0.65476-6.3731 1.7303-7.4256 1.8105z"/>
  <path d="m647.56 770.32c2.5918 4.778 0.80623 10.797-3.9718 13.389-4.7781 2.5918-10.797 0.80624-13.389-3.9718-2.5918-4.7781-0.80624-10.797 3.9718-13.389 4.7781-2.5918 10.797-0.80624 13.389 3.9718zm-3.1687 1.1645c-1.8187-3.3529-5.4366-4.3181-8.7895-2.4994-3.3529 1.8187-3.5205 5.7024-1.7018 9.0554 1.8187 3.3529 4.9049 4.8498 8.2578 3.031 3.3529-1.8187 4.0522-6.2341 2.2335-9.587z"/>
  <path d="m1153.7 441.72c2.5918 4.7781 0.8062 10.797-3.9718 13.389-4.7781 2.5918-10.797 0.80626-13.389-3.9718-2.5917-4.7781-0.8062-10.797 3.9719-13.389 4.778-2.5918 10.797-0.80624 13.389 3.9718zm-3.1687 1.1645c-1.8188-3.3529-5.4366-4.318-8.7895-2.4993-3.353 1.8187-3.5206 5.7024-1.7018 9.0553 1.8187 3.3529 4.9048 4.8498 8.2578 3.0311 3.3529-1.8187 4.0522-6.2341 2.2335-9.5871z"/>
  <path d="m1302.1 437.62c5.6086 0.59396 6.2997 3.6948 0.1816 5.5924-3.493 1.0833-6.5331 0.58838-10.573 0.94498-21.093 1.8616-90.107 1.6993-109.05 2.6155-0.01-1.1534 0.049-1.3037-0.038-2.4527 20.663-1.1821 101.07-5.3787 109.49-6.0646 3.3746-0.27482 8.6287-0.78023 9.9945-0.63563z"/>
  <path d="m1290.3 389.5c5.5039-1.2317 7.1507 1.4852 1.9613 5.2404-2.9629 2.1438-6.0015 2.6476-9.7151 4.2779-19.388 8.5118-84.827 30.438-102.48 37.367-0.3765-1.0904-0.3711-1.2509-0.8203-2.3117 19.198-7.7306 94.034-37.43 101.79-40.774 3.1093-1.3399 7.9256-3.4997 9.2658-3.7997z"/>
  <path d="m1256 358.13c4.3557-2.1273 6.4767 0.18745 3.0573 4.6743-1.9524 2.5615-4.4038 3.5674-7.1309 5.7673-14.238 11.485-64.096 43.743-77.279 53.416-0.6094-0.97787-0.647-1.1326-1.3104-2.0696 14.283-10.705 70.074-52.019 75.788-56.555 2.2899-1.8179 5.8147-4.7144 6.8753-5.2324z"/>
  <path d="m1217.2 333.82c3.0674-3.1115 5.311-1.8926 3.5334 2.8486-1.0151 2.7068-2.7842 4.3019-4.5105 6.9582-9.0126 13.869-42.354 55.938-50.915 67.994-0.7146-0.60552-0.78-0.71974-1.5294-1.275 9.224-13.247 45.366-64.579 48.999-70.085 1.4562-2.2065 3.6754-5.6834 4.4223-6.4411z"/>
  <path d="m1285.1 478.01c4.6805 1.8562 4.5812 4.6957-1.0928 4.8656-3.2395 0.0968-5.7379-1.0584-9.2846-1.7192-18.517-3.4497-77.706-20.129-94.169-23.879 0.2507-0.99652 0.3328-1.1126 0.5153-2.124 17.996 3.9325 87.933 19.583 95.312 21.009 2.9572 0.57177 7.5791 1.3952 8.7188 1.8472z"/>
  <path d="m1254.7 511.5c3.4441 2.6317 2.7806 4.9165-1.891 3.6939-2.6671-0.69816-4.4718-2.2366-7.2346-3.6244-14.424-7.2457-59.372-35.002-72.056-41.999 0.4092-0.75014 0.5002-0.82481 0.8567-1.6033 13.9 7.5133 67.841 37.011 73.579 39.94 2.2993 1.1741 5.9073 2.9519 6.746 3.5928z"/>
  <path d="m1226.4 544.45c2.439 3.5833 1.0891 5.5424-2.9589 2.9095-2.3111-1.5033-3.5389-3.5322-5.7233-5.7202-11.405-11.423-45.312-51.933-55.143-62.572 0.6248-0.58293 0.7347-0.62508 1.3185-1.2516 10.822 11.512 52.716 56.509 57.238 61.098 1.812 1.8391 4.6756 4.6635 5.2695 5.5361z"/>
 </g>
</svg>
